<svg width="90" height="30" viewBox="0 0 148 35" fill="none" xmlns="http://www.w3.org/2000/svg">
<g clip-path="url(#clip0_4155_159469)">
<path d="M110.933 25.876H112.503L109.384 34.5056H107.812L110.932 25.876H110.933Z" fill="#414141"/>
<path d="M115.649 33.8277C114.26 33.8277 113.333 33.0354 113.325 31.8494H114.783C114.791 32.3425 115.168 32.5876 115.704 32.5876C116.119 32.5876 116.49 32.3996 116.49 32.0295C116.49 31.6594 116.011 31.5364 115.426 31.439C114.543 31.2913 113.419 31.0551 113.419 29.752C113.419 28.7058 114.309 27.9824 115.644 27.9824C116.979 27.9824 117.856 28.7255 117.861 29.8308H116.442C116.436 29.3908 116.128 29.1743 115.607 29.1743C115.141 29.1743 114.866 29.3879 114.866 29.7038C114.866 30.0729 115.339 30.1585 115.913 30.2628C116.815 30.4252 117.967 30.6162 117.967 31.9636C117.967 33.0925 117.044 33.8267 115.647 33.8267L115.649 33.8277Z" fill="#414141"/>
<path d="M122.905 32.3398V33.6714H121.843C120.626 33.6714 119.879 32.9234 119.879 31.6961V29.3419H118.879V29.019L121.064 26.6963H121.349V28.1391H122.876V29.3419H121.375V31.4973C121.375 32.0317 121.682 32.3388 122.227 32.3388H122.906L122.905 32.3398Z" fill="#414141"/>
<path d="M124.363 31.3354V28.1396H125.858V31.1651C125.858 31.9525 126.274 32.421 126.965 32.421C127.656 32.421 128.064 31.9417 128.064 31.1651V28.1396H129.559V31.3354C129.559 32.8294 128.53 33.8274 126.965 33.8274C125.4 33.8274 124.363 32.8294 124.363 31.3354Z" fill="#414141"/>
<path d="M136.992 26.1455V33.6708H135.888L135.712 33.2102C135.247 33.6049 134.65 33.8361 133.98 33.8361C132.302 33.8361 131.071 32.5803 131.071 30.9052C131.071 29.23 132.302 27.983 133.98 27.983C134.55 27.983 135.069 28.1494 135.497 28.4417V26.1465H136.992V26.1455ZM135.609 30.9052C135.609 30.0381 134.97 29.3895 134.101 29.3895C133.232 29.3895 132.595 30.0361 132.595 30.9052C132.595 31.7742 133.232 32.4208 134.101 32.4208C134.97 32.4208 135.609 31.7703 135.609 30.9052Z" fill="#414141"/>
<path d="M138.941 28.1396H140.437V33.6709H138.941V28.1396ZM138.944 26.0117H140.434V27.4024H138.944V26.0117Z" fill="#414141"/>
<path d="M142.02 30.9055C142.02 29.2274 143.297 27.9834 145.01 27.9834C146.724 27.9834 148 29.2294 148 30.9055C148 32.5816 146.715 33.8277 145.01 33.8277C143.305 33.8277 142.02 32.5738 142.02 30.9055ZM146.484 30.9055C146.484 30.0099 145.872 29.3898 145.01 29.3898C144.148 29.3898 143.536 30.0099 143.536 30.9055C143.536 31.8012 144.148 32.4212 145.01 32.4212C145.872 32.4212 146.484 31.8012 146.484 30.9055Z" fill="#414141"/>
<path d="M38.0842 18.0077C35.2113 18.0077 33.0352 15.8306 33.0352 12.9813C33.0352 10.132 35.2122 7.97266 38.0842 7.97266C40.4748 7.97266 42.331 9.42437 42.8655 11.6192H40.903C40.403 10.5218 39.3331 9.84955 38.0842 9.84955C36.3529 9.84955 35.0508 11.2127 35.0508 12.9823C35.0508 14.7519 36.3716 16.1328 38.0842 16.1328C39.3509 16.1328 40.3675 15.4605 40.8852 14.2923H42.8832C42.3655 16.5225 40.4571 18.0087 38.0842 18.0087V18.0077Z" fill="#414141"/>
<path d="M49.2906 18.0077C46.3291 18.0077 44.1343 15.866 44.1343 12.9813C44.1343 10.0966 46.3291 7.97266 49.2906 7.97266C52.2521 7.97266 54.4291 10.1143 54.4291 12.9813C54.4291 15.8483 52.2343 18.0077 49.2906 18.0077ZM49.2906 16.1318C51.1104 16.1318 52.4135 14.8218 52.4135 12.9813C52.4135 11.1408 51.1114 9.84857 49.2906 9.84857C47.4698 9.84857 46.1509 11.1586 46.1509 12.9813C46.1509 14.8041 47.453 16.1318 49.2906 16.1318Z" fill="#414141"/>
<path d="M64.0319 4.78613H66.0122V17.7777H64.5132L64.2455 16.6803C63.3892 17.512 62.1934 18.008 60.8559 18.008C57.9298 18.008 55.8423 15.8487 55.8423 12.9994C55.8423 10.1501 57.9298 7.97301 60.8559 7.97301C62.0871 7.97301 63.1747 8.38048 64.0319 9.08813V4.78613ZM60.9986 16.1312C62.8184 16.1312 64.1569 14.768 64.1569 12.9807C64.1569 11.1934 62.8184 9.84794 60.9986 9.84794C59.1788 9.84794 57.8589 11.1934 57.8589 12.9807C57.8589 14.768 59.1975 16.1312 60.9986 16.1312Z" fill="#414141"/>
<path d="M68.8042 6.73262V4.69727H70.8386V6.73262H68.8042ZM68.8396 17.7588V8.20205H70.8199V17.7597H68.8396V17.7588Z" fill="#414141"/>
<path d="M78.7163 7.98926C80.9819 7.98926 82.3913 9.65258 82.3913 12.0068V17.7586H80.4111V12.4133C80.4111 10.6791 79.6434 9.75887 78.1986 9.75887C76.6819 9.75887 75.6121 10.9626 75.6121 12.6436V17.7586H73.6318V8.20185H75.0058L75.3985 9.54727C76.1121 8.57388 77.3079 7.99024 78.7173 7.99024L78.7163 7.98926Z" fill="#414141"/>
<path d="M92.9471 8.20199H94.2492V16.5206C94.2492 19.5647 92.4294 21.4229 89.4492 21.4229C86.969 21.4229 85.221 20.1484 84.7387 18.0599H86.7013C87.0763 19.1041 88.2179 19.6877 89.4315 19.6877C91.0909 19.6877 92.3221 18.5904 92.3221 16.7853V16.3424C91.4836 17.0678 90.3773 17.493 89.1283 17.493C86.4345 17.493 84.3647 15.4222 84.3647 12.7323C84.3647 10.0425 86.4345 7.97168 89.1283 7.97168C90.5377 7.97168 91.769 8.5376 92.643 9.44111L92.9461 8.20199H92.9471ZM89.3429 15.6712C91.0554 15.6712 92.3044 14.4321 92.3044 12.7333C92.3044 11.0346 91.0731 9.81314 89.3429 9.81314C87.6126 9.81314 86.3804 11.07 86.3804 12.7333C86.3804 14.3966 87.6294 15.6712 89.3429 15.6712Z" fill="#414141"/>
<path d="M101.83 8.02441C104.149 8.02441 105.594 9.67002 105.594 12.0951V17.7593H104.72V12.2723C104.72 10.0952 103.579 8.82064 101.634 8.82064C99.6891 8.82064 98.2265 10.3954 98.2265 12.3077V17.7593H97.3525V8.20157H97.9952L98.1734 10.1483C98.8692 8.85607 100.243 8.02441 101.831 8.02441H101.83Z" fill="#414141"/>
<path d="M108.656 6.23801V5.0166H109.763V6.23801H108.656ZM108.781 17.7602V8.2025H109.655V17.7602H108.781Z" fill="#414141"/>
<path d="M117.493 8.02441C119.812 8.02441 121.258 9.67002 121.258 12.0951V17.7593H120.384V12.2723C120.384 10.0952 119.242 8.82064 117.297 8.82064C115.353 8.82064 113.89 10.3954 113.89 12.3077V17.7593H113.016V8.20157H113.659L113.837 10.1483C114.533 8.85607 115.907 8.02441 117.494 8.02441H117.493Z" fill="#414141"/>
<path d="M124.552 6.23801V5.0166H125.641V6.23801H124.552ZM122.019 21.1587V20.3624H122.429C123.839 20.3624 124.66 19.5485 124.66 18.1499V8.2025H125.534V18.2021C125.534 20.0071 124.357 21.1577 122.537 21.1577H122.019V21.1587Z" fill="#414141"/>
<path d="M137.31 8.20156H138.023V17.7593H137.292L137.185 15.6885C136.346 17.0693 134.847 17.9541 132.992 17.9541C130.173 17.9541 128.05 15.8125 128.05 12.9809C128.05 10.1493 130.173 8.02539 132.992 8.02539C134.847 8.02539 136.346 8.9102 137.185 10.291L137.31 8.20255V8.20156ZM133.045 17.1215C135.418 17.1215 137.149 15.3696 137.149 12.9799C137.149 10.5902 135.418 8.85607 133.045 8.85607C130.672 8.85607 128.942 10.6434 128.942 12.9799C128.942 15.3164 130.709 17.1215 133.045 17.1215Z" fill="#414141"/>
<path d="M144.253 17.9541C142.041 17.9541 140.649 16.8567 140.524 15.0694H141.38C141.505 16.3971 142.611 17.1579 144.271 17.1579C145.93 17.1579 147.072 16.3971 147.072 15.1934C147.072 13.7063 145.627 13.4415 144.128 13.1935C142.469 12.91 140.702 12.5921 140.702 10.6267C140.702 9.06866 142.111 8.02441 144.199 8.02441C146.286 8.02441 147.625 9.08638 147.696 10.7851H146.857C146.786 9.52829 145.805 8.80293 144.181 8.80293C142.557 8.80293 141.558 9.52829 141.558 10.608C141.558 11.9002 142.86 12.1128 144.342 12.3599C146.019 12.6433 147.946 12.9612 147.946 15.156C147.946 16.8548 146.465 17.9522 144.252 17.9522L144.253 17.9541Z" fill="#414141"/>
<path d="M12.8233 25.9557C19.9054 25.9557 25.6466 20.1453 25.6466 12.9778C25.6466 5.81037 19.9054 0 12.8233 0C5.74119 0 0 5.81037 0 12.9778C0 20.1453 5.74119 25.9557 12.8233 25.9557Z" fill="#414141"/>
<path d="M4.64916 13.0178C4.61078 14.3416 4.84108 15.6653 5.26429 16.9497C5.64912 18.0402 6.38039 18.9743 7.34295 19.6357C8.45905 20.3364 9.73951 20.609 11.0751 20.609H19.2716V16.7047H11.0623C9.05745 16.7047 8.0939 15.3258 8.0939 13.0257V13.0276C8.0939 10.7275 9.05745 9.35358 11.0623 9.35358H19.2716V5.4502H11.0751C9.77986 5.4502 8.45905 5.72282 7.34295 6.42358C6.38039 7.08497 5.6501 8.01899 5.26429 9.1095C4.84108 10.3939 4.61078 11.7177 4.64916 13.0414" fill="url(#paint0_linear_4155_159469)"/>
<!-- <path fill-rule="evenodd" clip-rule="evenodd" d="M9.62842 12.2188L13.4767 12.9628C13.4767 12.9628 10.654 15.9302 9.62842 12.2188Z" fill="white"/> -->
<!-- <path fill-rule="evenodd" clip-rule="evenodd" d="M18.653 12.2324L14.9229 13.0159C14.9229 13.0159 18.154 15.9518 18.653 12.2324Z" fill="white"/> -->
</g>
<defs>
<linearGradient id="paint0_linear_4155_159469" x1="4.64522" y1="13.0296" x2="19.2716" y2="13.0296" gradientUnits="userSpaceOnUse">
<stop stop-color="#F16222"/>
<!-- <stop offset="0.26" stop-color="#F37421"/> -->
<!-- <stop offset="0.71" stop-color="#F68D1E"/> -->
<!-- <stop offset="1" stop-color="#F7981D"/> -->
</linearGradient>
<clipPath id="clip0_4155_159469">
<rect width="148" height="34.5055" fill="white"/>
</clipPath>
</defs>
</svg>
